<?xml version="1.0" standalone="no"?>
<!DOCTYPE svg PUBLIC "-//W3C//DTD SVG 20010904//EN"
 "http://www.w3.org/TR/2001/REC-SVG-20010904/DTD/svg10.dtd">
<svg version="1.0" xmlns="http://www.w3.org/2000/svg"
 width="2000.000000pt" height="2000.000000pt" viewBox="0 0 2000.000000 2000.000000"
 preserveAspectRatio="xMidYMid meet">
<metadata>
Created by potrace 1.14, written by Peter Selinger 2001-2017
</metadata>
<g transform="translate(0.000000,2000.000000) scale(0.100000,-0.100000)"
fill="#000000" stroke="none">
<path d="M16947 18665 c-1 -1 -45 -5 -97 -9 -116 -8 -141 -11 -285 -40 -127
-26 -341 -98 -448 -152 -325 -163 -525 -413 -616 -769 -10 -40 -13 -57 -30
-175 -10 -64 -8 -357 3 -435 14 -105 16 -122 21 -145 2 -14 10 -50 16 -80 17
-87 44 -187 80 -295 18 -55 33 -103 34 -107 0 -6 -389 -298 -590 -443 -15 -11
-39 -29 -54 -40 -14 -11 -40 -30 -57 -42 l-31 -22 -63 97 c-185 284 -527 638
-883 916 -389 302 -708 492 -1132 672 -181 77 -598 200 -825 243 -85 16 -221
39 -273 46 -149 21 -275 36 -332 40 -22 2 -83 7 -135 12 -129 10 -734 10 -895
-1 -239 -16 -282 -19 -465 -41 -19 -3 -58 -7 -86 -10 -28 -3 -60 -7 -71 -9
-11 -3 -44 -7 -74 -11 -30 -3 -79 -10 -109 -15 -30 -5 -71 -12 -90 -15 -19 -3
-46 -7 -60 -10 -14 -3 -41 -7 -60 -10 -65 -11 -434 -85 -475 -96 -22 -6 -50
-13 -63 -15 -52 -10 -280 -69 -402 -104 -264 -76 -605 -204 -881 -331 -131
-60 -478 -237 -511 -260 -14 -10 -28 -19 -31 -19 -6 0 -232 -133 -312 -183
-195 -123 -676 -462 -705 -496 -3 -3 -34 -28 -70 -56 -36 -27 -67 -52 -70 -55
-3 -3 -30 -25 -60 -50 -30 -25 -57 -47 -60 -50 -6 -6 -155 -136 -184 -160 -10
-8 -88 -82 -173 -165 -86 -82 -159 -150 -163 -150 -5 0 -25 16 -47 35 -21 19
-74 66 -118 105 -44 38 -85 74 -91 80 -6 5 -39 35 -73 65 -34 30 -75 66 -90
80 -47 43 -103 93 -181 160 -41 36 -77 68 -80 71 -3 3 -48 43 -100 89 -52 46
-97 86 -100 89 -3 3 -36 33 -75 66 -38 33 -85 75 -105 92 -19 18 -83 75 -142
125 -59 51 -107 98 -107 104 -1 6 12 40 28 75 48 109 107 300 126 414 3 22 8
51 11 65 12 74 11 293 -1 370 -43 265 -162 469 -340 584 -102 66 -270 135
-370 150 -22 4 -56 11 -75 15 -19 5 -62 12 -95 15 -33 3 -71 8 -85 11 -32 6
-299 7 -365 0 -47 -4 -89 -9 -175 -21 -174 -24 -442 -105 -617 -186 -138 -64
-340 -195 -428 -279 -22 -21 -51 -48 -65 -61 -89 -81 -221 -268 -279 -393 -74
-159 -130 -316 -146 -414 -3 -19 -8 -37 -10 -40 -8 -14 -19 -153 -19 -241 2
-307 105 -551 329 -776 82 -83 236 -204 260 -204 3 0 22 -11 43 -23 43 -28
213 -97 292 -120 386 -110 855 -26 1263 228 l72 45 59 -62 c33 -35 137 -144
232 -243 94 -99 197 -207 229 -240 69 -73 174 -183 411 -431 100 -104 204
-212 230 -241 27 -28 87 -90 133 -138 83 -86 83 -86 65 -108 -11 -12 -22 -24
-25 -27 -3 -3 -32 -43 -65 -90 -77 -109 -158 -247 -223 -380 -29 -58 -56 -112
-61 -121 -19 -35 -104 -249 -142 -354 -81 -230 -176 -584 -203 -755 -3 -19
-12 -71 -20 -115 -8 -44 -17 -100 -19 -125 -3 -25 -7 -67 -11 -95 -18 -150
-28 -340 -28 -545 0 -146 9 -373 17 -450 3 -19 7 -66 11 -105 4 -38 8 -77 10
-85 1 -8 6 -40 9 -71 4 -31 8 -65 10 -75 2 -11 7 -41 10 -67 6 -42 11 -70 32
-177 3 -13 12 -55 20 -93 17 -83 17 -87 2 -87 -13 0 -266 -91 -325 -116 -17
-8 -36 -14 -42 -14 -6 0 -19 -4 -29 -10 -49 -27 -284 -106 -287 -96 -48 186
-129 287 -290 362 -140 65 -269 70 -391 14 -117 -53 -233 -162 -326 -305 l-53
-83 -85 0 c-102 -1 -191 -23 -244 -60 -38 -26 -121 -121 -134 -152 -3 -8 -15
-31 -28 -50 -18 -31 -68 -154 -80 -200 -11 -43 -26 -107 -29 -123 -2 -10 -6
-26 -9 -35 -17 -57 -23 -212 -11 -271 38 -196 168 -387 360 -532 30 -23 53
-44 51 -48 -2 -3 -7 -22 -10 -41 -3 -19 -8 -46 -11 -60 -21 -96 5 -292 53
-403 106 -249 275 -345 552 -313 160 18 392 125 492 227 104 106 148 313 124
579 l-6 75 112 36 c326 106 894 292 900 296 11 6 16 -8 112 -302 103 -315 253
-763 265 -790 5 -11 26 -69 46 -130 78 -233 470 -1335 495 -1390 7 -17 218
-595 370 -1015 70 -194 398 -1090 560 -1530 197 -537 242 -662 238 -666 -3 -2
-23 -6 -44 -9 -43 -4 -125 -14 -164 -20 -14 -2 -43 -6 -65 -9 -22 -3 -60 -8
-85 -11 -50 -7 -221 -33 -260 -40 -14 -3 -54 -10 -89 -15 -36 -6 -67 -13 -70
-15 -4 -2 -27 -6 -51 -10 -86 -12 -381 -86 -450 -112 -8 -3 -20 -7 -25 -8 -54
-12 -178 -76 -216 -112 -55 -51 -115 -167 -133 -259 -3 -10 -9 -39 -15 -64
-46 -205 -58 -637 -27 -1000 2 -19 7 -80 11 -135 4 -55 9 -107 10 -116 2 -9 6
-56 10 -105 4 -49 11 -97 16 -106 26 -48 135 -72 387 -84 231 -11 1297 -4
1627 11 268 12 367 17 415 20 30 2 109 7 175 10 66 4 140 8 165 10 25 2 90 7
145 10 55 3 111 8 125 10 14 2 70 7 125 10 55 4 114 8 130 9 75 8 175 17 225
21 30 3 78 7 105 10 28 3 69 8 93 10 23 3 61 7 85 10 23 2 65 7 92 10 28 3 61
7 75 10 14 2 61 9 105 15 44 6 91 12 105 15 14 2 52 9 85 14 222 37 329 74
340 119 14 53 18 182 18 522 0 350 -10 858 -28 1425 -2 72 -5 208 -6 303 l-2
173 28 29 c84 88 404 192 725 235 25 3 56 8 70 10 22 4 71 8 200 20 349 31
1041 19 1142 -20 18 -7 34 -82 43 -200 3 -44 8 -102 10 -130 4 -49 14 -270 20
-450 8 -259 18 -1004 17 -1314 -1 -393 -3 -376 68 -448 93 -93 307 -175 570
-218 19 -3 42 -8 50 -10 8 -2 47 -7 85 -11 39 -3 73 -8 76 -10 32 -19 957 -26
1304 -10 94 5 197 9 230 11 67 3 283 15 360 20 28 2 95 6 150 9 55 4 118 8
140 11 22 2 76 7 120 10 44 3 96 8 115 10 19 2 64 7 100 10 36 3 81 8 100 10
19 3 60 7 90 10 171 17 408 60 456 82 26 13 38 28 53 68 11 29 22 70 25 91 4
22 8 50 11 62 26 137 26 766 0 922 -2 14 -7 50 -10 80 -22 223 -70 445 -116
531 -89 166 -304 301 -614 387 -83 23 -157 40 -205 47 -19 3 -46 7 -60 10 -34
6 -109 16 -145 20 -16 2 -61 6 -100 10 -38 4 -93 8 -122 9 -29 1 -54 4 -56 6
-2 3 29 115 70 250 40 135 75 252 78 260 19 72 355 1155 373 1200 5 14 11 30
12 35 1 6 4 15 6 20 1 6 19 64 39 130 20 66 40 131 45 145 5 14 29 90 54 170
24 80 63 206 86 279 23 74 43 140 44 145 2 6 19 63 39 126 31 99 152 495 218
712 11 37 20 70 20 73 0 2 6 20 15 40 8 19 14 38 14 42 1 5 14 51 30 103 62
204 153 508 235 780 47 157 92 306 100 331 8 26 62 206 121 400 58 195 109
359 112 365 5 7 62 -7 177 -44 94 -29 175 -55 180 -56 6 -2 51 -15 100 -31 50
-16 92 -29 95 -30 10 -2 336 -107 385 -124 l50 -17 7 -54 c15 -115 24 -171 44
-260 8 -36 17 -76 20 -90 11 -52 64 -200 95 -266 130 -276 339 -558 529 -716
63 -53 193 -116 270 -132 63 -13 246 -14 300 -2 14 3 41 9 60 12 64 12 214 79
287 127 171 114 263 261 263 423 0 100 -30 166 -111 246 l-68 67 47 22 c192
92 355 294 436 541 32 97 39 130 41 213 3 110 -31 204 -100 269 -70 67 -196
126 -305 141 -25 3 -54 7 -64 9 -17 2 -19 11 -19 74 2 126 -49 240 -159 353
-76 80 -123 111 -205 138 -190 63 -541 35 -926 -75 -191 -54 -141 -61 -444 61
-147 59 -281 113 -298 121 -16 7 -70 29 -120 49 -49 21 -103 43 -120 50 -16 8
-97 42 -180 75 -138 57 -169 74 -161 90 4 5 12 95 22 230 3 47 7 105 9 130 26
354 20 1320 -9 1620 -20 195 -60 462 -91 600 -3 14 -8 36 -11 50 -13 66 -88
339 -125 455 -46 145 -131 365 -190 494 l-39 85 171 255 c190 283 662 985 663
988 1 1 57 -14 126 -32 69 -19 136 -36 150 -39 14 -2 68 -14 120 -25 52 -11
120 -23 150 -27 30 -3 66 -8 80 -10 39 -6 193 -5 236 2 80 12 220 51 239 66 5
4 16 8 24 8 23 0 169 78 239 127 287 203 450 519 490 950 14 154 6 607 -13
698 -3 11 -7 38 -10 60 -25 186 -85 391 -161 554 -176 377 -483 599 -879 636
-70 7 -174 12 -178 10z"/>
</g>
</svg>
